<svg xmlns="http://www.w3.org/2000/svg" viewBox="0 0 114.81 112.93"><path d="M32.75,70.42a3.66,3.66,0,0,1,3.65-3.65H37a3.66,3.66,0,0,1,3.65,3.65V98.09l3.47,3.47V69.73a3,3,0,0,1,3-3h.51a3,3,0,0,1,3,3V108l4.94,5V69.18a2.42,2.42,0,0,1,2.41-2.41h.42a2.42,2.42,0,0,1,2.41,2.41v42.28l6.79-6.79V68.53a1.77,1.77,0,0,1,1.76-1.76h.3a1.77,1.77,0,0,1,1.76,1.76v32.32l6.08-6.08V68.35A1.58,1.58,0,0,1,79,66.77h.27a1.58,1.58,0,0,1,1.58,1.58v23l33.93-33.93L57.41,0,0,57.41,32.75,90.16ZM17.9,52.57a2.81,2.81,0,0,1,2.81-2.81H93a2.82,2.82,0,1,1,0,5.63H20.71A2.82,2.82,0,0,1,17.9,52.57Zm8,9.47a2.27,2.27,0,0,1,2.27-2.27H86.7a2.27,2.27,0,0,1,0,4.54H28.12A2.27,2.27,0,0,1,25.85,62Z" style="fill:#273c8a"></path></svg>